<?xml version="1.0" standalone="no"?>
<!DOCTYPE svg PUBLIC "-//W3C//DTD SVG 20010904//EN"
 "http://www.w3.org/TR/2001/REC-SVG-20010904/DTD/svg10.dtd">
<svg version="1.0" xmlns="http://www.w3.org/2000/svg"
 width="400.000000pt" height="400.000000pt" viewBox="0 0 400.000000 400.000000"
 preserveAspectRatio="xMidYMid meet">

<g transform="translate(0.000000,400.000000) scale(0.100000,-0.100000)"
fill="#000000" stroke="none">
<path d="M0 2000 l0 -2000 2000 0 2000 0 0 2000 0 2000 -2000 0 -2000 0 0
-2000z m2292 1066 c263 -51 461 -211 544 -442 68 -186 44 -429 -58 -602 -45
-76 -161 -192 -230 -232 -32 -17 -58 -37 -58 -42 0 -6 105 -191 233 -411 127
-220 234 -404 235 -409 2 -5 -130 -7 -294 -6 l-298 3 -212 375 -213 375 -135
3 -136 3 0 -381 0 -380 -250 0 -250 0 0 1080 0 1080 524 0 c410 0 540 -3 598
-14z"/>
<path d="M1670 2360 l0 -280 238 0 c270 0 305 6 367 67 59 57 80 113 80 213 0
72 -4 93 -26 135 -14 28 -44 64 -67 82 -73 55 -119 63 -369 63 l-223 0 0 -280z"/>
</g>
</svg>
